<svg xmlns="http://www.w3.org/2000/svg" viewBox="0 0 120 120" width="120" height="120" role="img" aria-label="Quest Platform icon">
  <title>Quest Platform</title>
  <rect x="16" y="16" width="88" height="88" rx="24" fill="#0F172A"/>
  <path d="M36 40 C46 24 74 24 84 40" stroke="#F59E0B" stroke-width="8" stroke-linecap="round" fill="none"/>
  <path d="M34 58 C44 52 56 50 68 50 C80 50 86 54 86 62 C86 74 72 82 58 82 C46 82 34 76 34 62 Z" fill="#3B82F6"/>
  <path d="M46 58 C50 54 58 52 64 52 C70 52 76 54 80 58" stroke="#FFFFFF" stroke-width="5" stroke-linecap="round" fill="none"/>
  <circle cx="54" cy="68" r="4" fill="#FFFFFF"/>
  <circle cx="72" cy="68" r="4" fill="#FFFFFF"/>
</svg>
